<svg xmlns="http://www.w3.org/2000/svg" width="600" height="400" viewBox="0 0 600 400"><rect width="100%" height="100%" fill="#DDDDDD"/><path fill="#999999" d="M156.6 178.67h4.98v35.43h-5.81v-22.88q0-1.38.15-2.97l-10.71 20.12q-.76 1.44-2.33 1.44h-.93q-1.57 0-2.33-1.44l-10.83-20.19q.08.81.13 1.59.05.79.05 1.45v22.88h-5.81v-35.43h4.97q.44 0 .76.03.32.02.58.12t.46.32q.21.22.41.59l10.61 19.67q.41.78.77 1.62.35.83.7 1.71.34-.9.71-1.75.36-.84.78-1.63l10.46-19.62q.2-.37.42-.59t.48-.32q.25-.1.57-.12.32-.03.76-.03m25.19 28.94v-4.24q-2.62.12-4.41.45t-2.87.85q-1.08.51-1.54 1.2-.47.68-.47 1.49 0 1.59.95 2.28.94.69 2.46.69 1.86 0 3.22-.68 1.36-.67 2.66-2.04M169 194.4l-1.08-1.93q4.34-3.97 10.44-3.97 2.2 0 3.94.72t2.94 2.01 1.83 3.07q.62 1.79.62 3.92v15.88h-2.74q-.86 0-1.32-.26-.47-.25-.74-1.04l-.54-1.81q-.95.86-1.86 1.51-.91.64-1.89 1.09-.98.44-2.09.67-1.12.23-2.46.23-1.6 0-2.94-.43-1.35-.43-2.33-1.28-.98-.86-1.52-2.13-.54-1.28-.54-2.97 0-.95.32-1.9.32-.94 1.04-1.8t1.87-1.62q1.16-.76 2.83-1.32 1.68-.56 3.91-.92 2.23-.35 5.1-.43v-1.47q0-2.52-1.08-3.73t-3.11-1.21q-1.47 0-2.44.34t-1.7.77q-.74.43-1.34.77t-1.33.34q-.64 0-1.08-.33t-.71-.77m40.15 12.25v-11.27q-1.02-1.25-2.24-1.76-1.21-.52-2.61-.52-1.37 0-2.47.52-1.1.51-1.89 1.55-.78 1.04-1.2 2.65-.41 1.6-.41 3.78 0 2.21.35 3.74.36 1.53 1.02 2.5t1.61 1.4q.96.43 2.14.43 1.88 0 3.21-.79 1.32-.78 2.49-2.23m0-28.96h6.06v36.41h-3.7q-1.2 0-1.52-1.1l-.52-2.43q-1.52 1.74-3.49 2.82t-4.59 1.08q-2.06 0-3.78-.86-1.71-.86-2.95-2.49-1.23-1.63-1.91-4.03-.67-2.4-.67-5.49 0-2.79.76-5.19t2.18-4.16q1.42-1.77 3.4-2.76 1.99-.99 4.46-.99 2.11 0 3.6.66 1.5.66 2.67 1.79zm16.81 20.95h11.42q0-1.18-.33-2.22t-.99-1.82q-.67-.79-1.68-1.24-1.02-.45-2.37-.45-2.62 0-4.13 1.49-1.5 1.5-1.92 4.24m15.44 3.65h-15.56q.15 1.94.68 3.35.54 1.4 1.43 2.32.88.92 2.09 1.37 1.21.46 2.68.46t2.54-.35q1.06-.34 1.86-.75.8-.42 1.4-.76.6-.35 1.16-.35.76 0 1.13.57l1.74 2.2q-1.01 1.18-2.26 1.97-1.25.8-2.61 1.28t-2.76.67q-1.41.2-2.74.2-2.62 0-4.87-.87-2.26-.87-3.92-2.57-1.67-1.71-2.62-4.22-.96-2.51-.96-5.82 0-2.57.83-4.84.84-2.26 2.39-3.94 1.56-1.68 3.8-2.66t5.06-.98q2.38 0 4.39.76 2 .76 3.45 2.22t2.27 3.57q.82 2.12.82 4.84 0 1.38-.3 1.85-.29.48-1.12.48m12-5.98v11.27q1.03 1.25 2.24 1.77 1.22.51 2.56.51 1.4 0 2.51-.5 1.12-.5 1.9-1.57.79-1.06 1.2-2.72.42-1.65.42-3.96 0-4.14-1.37-5.99-1.37-1.84-3.95-1.84-1.74 0-3.03.79-1.3.8-2.48 2.24m0-18.62v14.36q1.52-1.59 3.37-2.54 1.85-.94 4.23-.94 2.18 0 3.93.86t2.99 2.46q1.23 1.61 1.9 3.88.66 2.28.66 5.12 0 3.07-.76 5.57-.76 2.49-2.17 4.27t-3.39 2.76q-1.99.98-4.41.98-1.18 0-2.13-.24-.96-.23-1.77-.64-.81-.42-1.48-1.02t-1.29-1.34l-.27 1.69q-.14.64-.5.91-.35.27-.97.27h-3.99v-36.41zm39.74 11.27h4.85l-13.69 32.05q-.27.64-.7.97t-1.31.33h-4.51l4.7-10.1-10.16-23.25h5.31q.71 0 1.12.35.4.34.6.78l5.34 13.03q.27.67.45 1.33t.36 1.34l.44-1.36q.22-.67.49-1.33l5.04-13.01q.2-.49.65-.81.46-.32 1.02-.32m21.14 18.65v-4.24q-2.62.12-4.41.45-1.78.33-2.86.85-1.08.51-1.55 1.2-.46.68-.46 1.49 0 1.59.94 2.28t2.46.69q1.87 0 3.23-.68 1.36-.67 2.65-2.04m-12.79-13.21-1.07-1.93q4.33-3.97 10.43-3.97 2.21 0 3.95.72t2.94 2.01 1.82 3.07q.63 1.79.63 3.92v15.88h-2.75q-.85 0-1.32-.26-.46-.25-.73-1.04l-.54-1.81q-.96.86-1.86 1.51-.91.64-1.89 1.09-.98.44-2.1.67-1.11.23-2.46.23-1.59 0-2.94-.43t-2.33-1.28q-.98-.86-1.51-2.13-.54-1.28-.54-2.97 0-.95.31-1.9.32-.94 1.05-1.8.72-.86 1.87-1.62t2.83-1.32 3.91-.92q2.23-.35 5.09-.43v-1.47q0-2.52-1.07-3.73-1.08-1.21-3.12-1.21-1.47 0-2.43.34-.97.34-1.71.77-.73.43-1.33.77t-1.34.34q-.63 0-1.07-.33-.45-.33-.72-.77m29.72-3.92.37 2.84q1.18-2.25 2.79-3.54 1.62-1.28 3.83-1.28 1.74 0 2.79.76l-.39 4.53q-.13.44-.36.62-.23.19-.62.19-.37 0-1.09-.12-.73-.13-1.41-.13-1.01 0-1.79.3-.78.29-1.41.84-.62.55-1.1 1.34-.48.78-.9 1.79v15.48h-6.05v-25.14h3.55q.94 0 1.3.33.37.33.49 1.19m13.14-1.52h6.07v25.14h-6.07zm6.9-7.32q0 .78-.31 1.47-.32.68-.85 1.2-.53.51-1.24.82-.71.3-1.52.3-.78 0-1.48-.3-.7-.31-1.21-.82-.52-.52-.82-1.2-.31-.69-.31-1.47 0-.81.31-1.52.3-.71.82-1.23.51-.51 1.21-.82.7-.3 1.48-.3.81 0 1.52.3.71.31 1.24.82.53.52.85 1.23.31.71.31 1.52m22.05 10.04-1.37 2.18q-.24.39-.51.55t-.69.16q-.44 0-.94-.24-.5-.25-1.17-.55-.66-.31-1.5-.55-.85-.25-2-.25-1.79 0-2.8.76-1.02.76-1.02 1.98 0 .81.53 1.36.52.56 1.39.97.87.42 1.97.75 1.11.33 2.25.72t2.24.9q1.1.5 1.97 1.27t1.4 1.85q.52 1.08.52 2.6 0 1.81-.65 3.34-.64 1.53-1.92 2.65-1.27 1.11-3.15 1.74-1.87.62-4.32.62-1.3 0-2.54-.23-1.23-.23-2.37-.65t-2.11-.98-1.7-1.23l1.39-2.3q.27-.41.64-.63.37-.23.93-.23t1.07.32q.5.32 1.16.69t1.56.68q.89.32 2.26.32 1.08 0 1.85-.25.77-.26 1.28-.68.5-.41.73-.97.23-.55.23-1.13 0-.89-.52-1.45-.53-.56-1.4-.98t-1.98-.75q-1.12-.33-2.28-.72-1.17-.39-2.28-.92-1.12-.53-1.99-1.33-.86-.81-1.39-1.99-.53-1.17-.53-2.84 0-1.54.61-2.94.62-1.4 1.8-2.44 1.19-1.04 2.97-1.66 1.78-.63 4.1-.63 2.6 0 4.73.86t3.55 2.25m3.95 19.09q0-.76.28-1.45.28-.68.77-1.17t1.18-.79q.68-.29 1.47-.29.78 0 1.46.29.67.3 1.17.79t.8 1.17q.29.69.29 1.45 0 .78-.29 1.46-.3.67-.8 1.16t-1.17.77q-.68.28-1.46.28-.79 0-1.47-.28-.69-.28-1.18-.77t-.77-1.16q-.28-.68-.28-1.46m32.12-18.7-1.59 2.21q-.27.34-.53.54-.26.19-.75.19-.46 0-.9-.28-.45-.28-1.06-.63-.61-.36-1.46-.64-.84-.28-2.09-.28-1.59 0-2.79.57-1.2.58-2 1.66-.8 1.07-1.19 2.61-.39 1.53-.39 3.46 0 2.01.43 3.58t1.24 2.63q.8 1.07 1.96 1.62 1.15.55 2.59.55 1.45 0 2.34-.35.9-.36 1.51-.79t1.06-.78q.46-.36 1.02-.36.74 0 1.1.57l1.74 2.2q-1 1.18-2.18 1.97-1.17.8-2.44 1.28-1.26.48-2.59.67-1.34.2-2.66.2-2.33 0-4.39-.87-2.05-.87-3.6-2.54-1.54-1.66-2.44-4.08-.89-2.41-.89-5.5 0-2.77.8-5.13.79-2.36 2.34-4.09 1.54-1.73 3.82-2.71t5.24-.98q2.82 0 4.94.91 2.12.9 3.81 2.59m15.14-3.5q2.79 0 5.08.91 2.29.9 3.92 2.57t2.51 4.07q.89 2.4.89 5.36 0 2.99-.89 5.39-.88 2.4-2.51 4.09t-3.92 2.6-5.08.91q-2.82 0-5.12-.91t-3.93-2.6-2.53-4.09q-.89-2.4-.89-5.39 0-2.96.89-5.36.9-2.4 2.53-4.07t3.93-2.57q2.3-.91 5.12-.91m0 21.24q3.14 0 4.64-2.1 1.51-2.11 1.51-6.18t-1.51-6.2q-1.5-2.13-4.64-2.13-3.19 0-4.72 2.15-1.53 2.14-1.53 6.18t1.53 6.16 4.72 2.12m23.08 4.29h-6.05v-25.14h3.7q1.17 0 1.54 1.11l.39 1.86q.66-.74 1.39-1.35.72-.61 1.54-1.05t1.76-.7q.95-.26 2.07-.26 2.38 0 3.91 1.29 1.53 1.28 2.29 3.42.59-1.25 1.47-2.15.88-.89 1.94-1.46 1.05-.56 2.24-.83t2.39-.27q2.08 0 3.7.64 1.61.63 2.72 1.86 1.1 1.23 1.68 2.99.57 1.76.57 4.04v16h-6.05v-16q0-2.4-1.05-3.61-1.06-1.21-3.09-1.21-.93 0-1.73.31-.79.32-1.39.92t-.95 1.51q-.34.91-.34 2.08v16h-6.08v-16q0-2.52-1.01-3.67-1.02-1.15-2.98-1.15-1.32 0-2.46.64-1.14.65-2.12 1.78z"/></svg>